<svg width="1293" height="1209" viewBox="0 0 1293 1209" fill="none" xmlns="http://www.w3.org/2000/svg">
<mask id="mask0_47_9" style="mask-type:luminance" maskUnits="userSpaceOnUse" x="0" y="0" width="1293" height="938">
<path d="M0 0H1292.61V938H0V0Z" fill="white"/>
</mask>
<g mask="url(#mask0_47_9)">
<path d="M497.064 523.752C539.245 568.436 560.366 624.321 560.366 691.316C560.366 768.262 533.049 831.563 478.446 881.192C470.134 889.503 461.883 896.534 453.601 902.313C470.998 871.689 479.667 837.343 479.667 799.302C479.667 746.367 463.968 702.904 432.511 668.974C428.37 665.668 422.978 661.14 416.365 655.331C409.722 649.552 399.623 642.283 385.95 633.585C372.307 624.916 354.493 614.371 332.598 601.949C310.643 589.527 283.148 574.245 250.052 556.014C148.263 503.079 80.433 450.501 46.4734 398.37C15.88 354.58 0.568359 300.811 0.568359 237.062C0.568359 174.981 18.7695 122.85 55.2016 80.6392C53.5334 87.2821 52.2823 94.2826 51.478 101.76C50.6439 109.207 50.2268 116.624 50.2268 124.072C50.2268 177.037 70.0962 223.359 109.805 263.098C126.338 279.66 149.961 298.487 180.584 319.578C211.177 340.698 249.665 364.083 296.017 389.731C359.706 425.299 406.475 453.629 436.264 474.72C466.023 495.84 486.28 512.194 497.064 523.752ZM0.568359 820.422C12.9904 842.764 27.2594 864.063 43.4051 884.32C59.5508 904.606 78.3776 923.016 99.8853 939.549H0.568359V820.422ZM1280.88 834.066V72.0003C1280.88 65.3871 1281.26 55.229 1282.1 41.5558C1282.9 27.9124 1286.62 14.0605 1293.27 0H1136.87L892.425 721.91L866.3 656.582C837.345 583.778 806.096 501.023 772.613 408.349C739.1 315.675 703.294 212.665 665.223 99.317C657.776 78.6135 652.205 62.7061 648.482 51.5054C644.758 40.3345 642.047 32.0531 640.439 26.6911C638.741 21.2992 637.728 17.5756 637.341 15.4903C636.894 13.4349 636.715 11.1411 636.715 8.66864C636.715 4.55774 637.102 1.6384 637.936 0H426.94C448.448 16.5628 467.275 34.9426 483.42 55.229C499.566 75.5154 513.835 96.3976 526.257 117.905C532.87 137.745 539.9 156.989 547.378 175.607C554.825 194.225 561.825 212.635 568.468 230.836C591.614 287.912 611.484 338.196 628.046 381.629C644.579 425.061 658.64 461.285 670.258 490.24C695.072 557.265 717.593 617.261 737.879 670.226C758.136 723.191 775.741 769.93 790.636 810.473C793.138 817.116 796.623 826.41 801.181 838.385C805.739 850.39 810.505 863.021 815.48 876.247C820.425 889.503 824.982 901.896 829.123 913.484C833.234 925.101 836.57 933.77 839.043 939.549C850.601 905.649 861.772 872.941 872.556 841.483C881.284 815.924 1055.1 294.883 1124.99 85.2863C1128.77 73.9366 1145.57 76.6176 1145.6 88.5929C1145.6 88.8312 1145.6 89.0695 1145.6 89.3376V845.207C1145.6 871.689 1145.16 892.184 1144.35 906.662C1143.52 921.139 1142.3 932.102 1140.63 939.549H1288.35C1285.85 928.795 1283.97 915.152 1282.75 898.589C1281.5 882.056 1280.88 860.548 1280.88 834.066Z" fill="#F9F9F9"/>
</g>
<path d="M7.5 1093V976.636H57.9545C66.8182 976.636 74.2614 977.83 80.2841 980.216C86.3447 982.602 90.9091 985.973 93.9773 990.33C97.0833 994.686 98.6364 999.818 98.6364 1005.73C98.6364 1010.01 97.6894 1013.91 95.7955 1017.43C93.9394 1020.95 91.3258 1023.91 87.9545 1026.3C84.5833 1028.64 80.6439 1030.27 76.1364 1031.18V1032.32C81.1364 1032.51 85.6818 1033.78 89.7727 1036.12C93.8636 1038.44 97.1212 1041.64 99.5455 1045.73C101.97 1049.78 103.182 1054.55 103.182 1060.05C103.182 1066.41 101.515 1072.07 98.1818 1077.03C94.8864 1082 90.1894 1085.9 84.0909 1088.74C77.9924 1091.58 70.7197 1093 62.2727 1093H7.5ZM39.0909 1067.77H53.8636C59.1667 1067.77 63.1439 1066.79 65.7955 1064.82C68.447 1062.81 69.7727 1059.86 69.7727 1055.95C69.7727 1053.23 69.1477 1050.92 67.8977 1049.02C66.6477 1047.13 64.8674 1045.69 62.5568 1044.7C60.2841 1043.72 57.5379 1043.23 54.3182 1043.23H39.0909V1067.77ZM39.0909 1023.68H52.0455C54.8106 1023.68 57.2538 1023.25 59.375 1022.38C61.4962 1021.5 63.1439 1020.25 64.3182 1018.62C65.5303 1016.96 66.1364 1014.93 66.1364 1012.55C66.1364 1008.95 64.8485 1006.2 62.2727 1004.31C59.697 1002.38 56.4394 1001.41 52.5 1001.41H39.0909V1023.68ZM235.975 1093V976.636H319.839V1002.09H267.566V1022.09H315.52V1047.55H267.566V1067.55H319.611V1093H235.975ZM487.334 1093H453.243L491.652 976.636H534.834L573.243 1093H539.152L513.697 1008.68H512.788L487.334 1093ZM480.97 1047.09H545.061V1070.73H480.97V1047.09ZM774.914 976.636H806.505V1051.18C806.505 1060.05 804.383 1067.72 800.141 1074.19C795.936 1080.63 790.065 1085.61 782.527 1089.14C774.989 1092.62 766.239 1094.36 756.277 1094.36C746.239 1094.36 737.452 1092.62 729.914 1089.14C722.376 1085.61 716.505 1080.63 712.3 1074.19C708.133 1067.72 706.05 1060.05 706.05 1051.18V976.636H737.641V1048.45C737.641 1052.05 738.436 1055.27 740.027 1058.11C741.618 1060.92 743.815 1063.11 746.618 1064.7C749.459 1066.3 752.679 1067.09 756.277 1067.09C759.914 1067.09 763.133 1066.3 765.936 1064.7C768.739 1063.11 770.936 1060.92 772.527 1058.11C774.118 1055.27 774.914 1052.05 774.914 1048.45V976.636ZM939.937 1002.09V976.636H1041.07V1002.09H1006.07V1093H974.937V1002.09H939.937ZM1169.79 976.636H1205.02L1227.74 1023.91H1228.65L1251.38 976.636H1286.61L1243.88 1056.41V1093H1212.52V1056.41L1169.79 976.636Z" fill="#F9F9F9"/>
<path d="M69.6818 1142.36H50.4545C50.3182 1140.77 49.9545 1139.33 49.3636 1138.03C48.7955 1136.74 48 1135.62 46.9773 1134.69C45.9773 1133.74 44.7614 1133.01 43.3295 1132.51C41.8977 1131.99 40.2727 1131.73 38.4545 1131.73C35.2727 1131.73 32.5795 1132.5 30.375 1134.05C28.1932 1135.59 26.5341 1137.81 25.3977 1140.69C24.2841 1143.58 23.7273 1147.05 23.7273 1151.09C23.7273 1155.36 24.2955 1158.94 25.4318 1161.83C26.5909 1164.69 28.2614 1166.85 30.4432 1168.31C32.625 1169.74 35.25 1170.45 38.3182 1170.45C40.0682 1170.45 41.6364 1170.24 43.0227 1169.81C44.4091 1169.35 45.6136 1168.7 46.6364 1167.86C47.6591 1167.02 48.4886 1166.01 49.125 1164.83C49.7841 1163.62 50.2273 1162.27 50.4545 1160.77L69.6818 1160.91C69.4545 1163.86 68.625 1166.87 67.1932 1169.94C65.7614 1172.99 63.7273 1175.81 61.0909 1178.4C58.4773 1180.97 55.2386 1183.03 51.375 1184.6C47.5114 1186.17 43.0227 1186.95 37.9091 1186.95C31.5 1186.95 25.75 1185.58 20.6591 1182.83C15.5909 1180.08 11.5795 1176.03 8.625 1170.69C5.69318 1165.35 4.22727 1158.82 4.22727 1151.09C4.22727 1143.32 5.72727 1136.77 8.72727 1131.45C11.7273 1126.11 15.7727 1122.08 20.8636 1119.35C25.9545 1116.6 31.6364 1115.23 37.9091 1115.23C42.3182 1115.23 46.375 1115.83 50.0795 1117.03C53.7841 1118.24 57.0341 1120 59.8295 1122.32C62.625 1124.61 64.875 1127.44 66.5795 1130.81C68.2841 1134.17 69.3182 1138.02 69.6818 1142.36ZM151.678 1151.09C151.678 1158.86 150.166 1165.42 147.144 1170.76C144.121 1176.08 140.041 1180.11 134.905 1182.86C129.769 1185.59 124.041 1186.95 117.723 1186.95C111.359 1186.95 105.609 1185.58 100.473 1182.83C95.3594 1180.06 91.2913 1176.01 88.2685 1170.69C85.2685 1165.35 83.7685 1158.82 83.7685 1151.09C83.7685 1143.32 85.2685 1136.77 88.2685 1131.45C91.2913 1126.11 95.3594 1122.08 100.473 1119.35C105.609 1116.6 111.359 1115.23 117.723 1115.23C124.041 1115.23 129.769 1116.6 134.905 1119.35C140.041 1122.08 144.121 1126.11 147.144 1131.45C150.166 1136.77 151.678 1143.32 151.678 1151.09ZM132.178 1151.09C132.178 1146.91 131.621 1143.39 130.507 1140.52C129.416 1137.64 127.791 1135.45 125.632 1133.98C123.496 1132.48 120.859 1131.73 117.723 1131.73C114.587 1131.73 111.939 1132.48 109.78 1133.98C107.644 1135.45 106.019 1137.64 104.905 1140.52C103.814 1143.39 103.269 1146.91 103.269 1151.09C103.269 1155.27 103.814 1158.81 104.905 1161.69C106.019 1164.56 107.644 1166.74 109.78 1168.24C111.939 1169.72 114.587 1170.45 117.723 1170.45C120.859 1170.45 123.496 1169.72 125.632 1168.24C127.791 1166.74 129.416 1164.56 130.507 1161.69C131.621 1158.81 132.178 1155.27 132.178 1151.09ZM226.617 1116.18V1186H210.798L185.571 1149.32H185.162V1186H166.208V1116.18H182.298L207.117 1152.73H207.662V1116.18H226.617ZM278.979 1138C278.797 1135.73 277.945 1133.95 276.422 1132.68C274.922 1131.41 272.638 1130.77 269.57 1130.77C267.615 1130.77 266.013 1131.01 264.763 1131.49C263.536 1131.94 262.627 1132.57 262.036 1133.36C261.445 1134.16 261.138 1135.07 261.115 1136.09C261.07 1136.93 261.217 1137.69 261.558 1138.38C261.922 1139.03 262.49 1139.64 263.263 1140.18C264.036 1140.7 265.024 1141.18 266.229 1141.61C267.433 1142.05 268.865 1142.43 270.524 1142.77L276.252 1144C280.115 1144.82 283.422 1145.9 286.172 1147.24C288.922 1148.58 291.172 1150.16 292.922 1151.98C294.672 1153.77 295.956 1155.8 296.774 1158.05C297.615 1160.3 298.047 1162.75 298.07 1165.41C298.047 1170 296.899 1173.89 294.627 1177.07C292.354 1180.25 289.104 1182.67 284.877 1184.33C280.672 1185.99 275.615 1186.82 269.706 1186.82C263.638 1186.82 258.342 1185.92 253.82 1184.12C249.32 1182.33 245.82 1179.57 243.32 1175.84C240.842 1172.09 239.592 1167.3 239.57 1161.45H257.57C257.683 1163.59 258.217 1165.39 259.172 1166.84C260.127 1168.3 261.467 1169.4 263.195 1170.15C264.945 1170.9 267.024 1171.27 269.433 1171.27C271.456 1171.27 273.149 1171.02 274.513 1170.52C275.877 1170.02 276.911 1169.33 277.615 1168.44C278.32 1167.56 278.683 1166.55 278.706 1165.41C278.683 1164.34 278.331 1163.41 277.649 1162.61C276.99 1161.8 275.899 1161.07 274.377 1160.43C272.854 1159.77 270.797 1159.16 268.206 1158.59L261.252 1157.09C255.07 1155.75 250.195 1153.51 246.627 1150.38C243.081 1147.22 241.32 1142.91 241.342 1137.45C241.32 1133.02 242.502 1129.15 244.888 1125.83C247.297 1122.49 250.627 1119.89 254.877 1118.02C259.149 1116.16 264.047 1115.23 269.57 1115.23C275.206 1115.23 280.081 1116.17 284.195 1118.06C288.308 1119.94 291.479 1122.6 293.706 1126.03C295.956 1129.44 297.093 1133.43 297.115 1138H278.979ZM352.358 1116.18H371.313V1160.91C371.313 1166.23 370.04 1170.83 367.495 1174.72C364.972 1178.58 361.449 1181.57 356.926 1183.68C352.404 1185.77 347.154 1186.82 341.176 1186.82C335.154 1186.82 329.881 1185.77 325.358 1183.68C320.835 1181.57 317.313 1178.58 314.79 1174.72C312.29 1170.83 311.04 1166.23 311.04 1160.91V1116.18H329.995V1159.27C329.995 1161.43 330.472 1163.36 331.426 1165.07C332.381 1166.75 333.699 1168.07 335.381 1169.02C337.085 1169.98 339.017 1170.45 341.176 1170.45C343.358 1170.45 345.29 1169.98 346.972 1169.02C348.654 1168.07 349.972 1166.75 350.926 1165.07C351.881 1163.36 352.358 1161.43 352.358 1159.27V1116.18ZM386.081 1186V1116.18H405.036V1170.73H433.263V1186H386.081ZM436.432 1131.45V1116.18H497.114V1131.45H476.114V1186H457.432V1131.45H436.432ZM519.331 1186H498.877L521.922 1116.18H547.831L570.877 1186H550.422L535.15 1135.41H534.604L519.331 1186ZM515.513 1158.45H553.968V1172.64H515.513V1158.45ZM643.77 1116.18V1186H627.952L602.725 1149.32H602.316V1186H583.361V1116.18H599.452L624.27 1152.73H624.816V1116.18H643.77ZM656.587 1131.45V1116.18H717.269V1131.45H696.269V1186H677.587V1131.45H656.587ZM777.82 1187.09C772.82 1187.09 768.513 1186.2 764.9 1184.43C761.286 1182.66 758.513 1180.28 756.582 1177.31C754.65 1174.33 753.684 1171.05 753.684 1167.45C753.684 1164.84 754.184 1162.53 755.184 1160.53C756.184 1158.51 757.582 1156.66 759.377 1154.98C761.172 1153.3 763.275 1151.64 765.684 1150L781.502 1140.18C783.093 1139.18 784.172 1138.15 784.741 1137.08C785.309 1135.99 785.593 1135.02 785.593 1134.18C785.593 1133.07 785.184 1132.08 784.366 1131.22C783.547 1130.35 782.275 1129.93 780.547 1129.95C779.479 1129.95 778.559 1130.16 777.786 1130.57C777.013 1130.95 776.411 1131.5 775.979 1132.2C775.57 1132.91 775.366 1133.75 775.366 1134.73C775.366 1136.07 775.752 1137.44 776.525 1138.85C777.297 1140.24 778.354 1141.74 779.695 1143.35C781.036 1144.97 782.547 1146.77 784.229 1148.77L818.047 1186H799.229L770.866 1156C769.479 1154.52 767.945 1152.72 766.263 1150.58C764.582 1148.42 763.127 1145.99 761.9 1143.28C760.695 1140.58 760.093 1137.64 760.093 1134.45C760.093 1130.91 760.945 1127.67 762.65 1124.74C764.354 1121.81 766.741 1119.47 769.809 1117.72C772.877 1115.97 776.457 1115.09 780.547 1115.09C784.457 1115.09 787.82 1115.9 790.638 1117.51C793.479 1119.12 795.661 1121.27 797.184 1123.95C798.729 1126.64 799.502 1129.59 799.502 1132.82C799.502 1136.07 798.695 1139.1 797.082 1141.92C795.491 1144.74 793.207 1147.2 790.229 1149.32L775.775 1159.55C774.661 1160.32 773.695 1161.2 772.877 1162.2C772.082 1163.2 771.684 1164.5 771.684 1166.09C771.684 1167.41 771.991 1168.53 772.604 1169.47C773.218 1170.4 774.082 1171.11 775.195 1171.61C776.332 1172.11 777.661 1172.36 779.184 1172.36C781.502 1172.36 783.82 1171.81 786.138 1170.69C788.479 1169.56 790.616 1167.98 792.547 1165.95C794.479 1163.91 796.025 1161.5 797.184 1158.73C798.366 1155.93 798.957 1152.89 798.957 1149.59H813.82C813.82 1153.64 813.4 1157.53 812.559 1161.28C811.718 1165.03 810.366 1168.47 808.502 1171.58C806.638 1174.69 804.184 1177.32 801.138 1179.45C800.184 1179.93 799.252 1180.39 798.343 1180.82C797.434 1181.25 796.502 1181.7 795.547 1182.18C792.752 1183.98 789.832 1185.25 786.786 1186C783.741 1186.73 780.752 1187.09 777.82 1187.09ZM852.63 1186V1116.18H882.903C888.221 1116.18 892.687 1116.9 896.3 1118.33C899.937 1119.76 902.675 1121.78 904.516 1124.4C906.38 1127.01 907.312 1130.09 907.312 1133.64C907.312 1136.2 906.744 1138.55 905.607 1140.66C904.494 1142.77 902.925 1144.55 900.903 1145.98C898.88 1147.39 896.516 1148.36 893.812 1148.91V1149.59C896.812 1149.7 899.539 1150.47 901.994 1151.88C904.448 1153.26 906.403 1155.18 907.857 1157.64C909.312 1160.07 910.039 1162.93 910.039 1166.23C910.039 1170.05 909.039 1173.44 907.039 1176.42C905.062 1179.4 902.244 1181.74 898.585 1183.44C894.925 1185.15 890.562 1186 885.494 1186H852.63ZM871.585 1170.86H880.448C883.63 1170.86 886.016 1170.27 887.607 1169.09C889.198 1167.89 889.994 1166.11 889.994 1163.77C889.994 1162.14 889.619 1160.75 888.869 1159.61C888.119 1158.48 887.05 1157.61 885.664 1157.02C884.3 1156.43 882.653 1156.14 880.721 1156.14H871.585V1170.86ZM871.585 1144.41H879.357C881.016 1144.41 882.482 1144.15 883.755 1143.62C885.028 1143.1 886.016 1142.35 886.721 1141.38C887.448 1140.38 887.812 1139.16 887.812 1137.73C887.812 1135.57 887.039 1133.92 885.494 1132.78C883.948 1131.62 881.994 1131.05 879.63 1131.05H871.585V1144.41ZM922.515 1186V1116.18H952.651C957.833 1116.18 962.367 1117.12 966.254 1119.01C970.14 1120.9 973.163 1123.61 975.322 1127.16C977.481 1130.7 978.56 1134.95 978.56 1139.91C978.56 1144.91 977.447 1149.12 975.22 1152.56C973.015 1155.99 969.913 1158.58 965.913 1160.33C961.935 1162.08 957.288 1162.95 951.97 1162.95H933.97V1148.23H948.151C950.379 1148.23 952.276 1147.95 953.845 1147.41C955.435 1146.84 956.651 1145.94 957.492 1144.72C958.356 1143.49 958.788 1141.89 958.788 1139.91C958.788 1137.91 958.356 1136.28 957.492 1135.03C956.651 1133.76 955.435 1132.83 953.845 1132.24C952.276 1131.62 950.379 1131.32 948.151 1131.32H941.47V1186H922.515ZM963.424 1153.95L980.879 1186H960.288L943.242 1153.95H963.424ZM1060.04 1151.09C1060.04 1158.86 1058.53 1165.42 1055.5 1170.76C1052.48 1176.08 1048.4 1180.11 1043.26 1182.86C1038.13 1185.59 1032.4 1186.95 1026.08 1186.95C1019.72 1186.95 1013.97 1185.58 1008.83 1182.83C1003.72 1180.06 999.65 1176.01 996.627 1170.69C993.627 1165.35 992.127 1158.82 992.127 1151.09C992.127 1143.32 993.627 1136.77 996.627 1131.45C999.65 1126.11 1003.72 1122.08 1008.83 1119.35C1013.97 1116.6 1019.72 1115.23 1026.08 1115.23C1032.4 1115.23 1038.13 1116.6 1043.26 1119.35C1048.4 1122.08 1052.48 1126.11 1055.5 1131.45C1058.53 1136.77 1060.04 1143.32 1060.04 1151.09ZM1040.54 1151.09C1040.54 1146.91 1039.98 1143.39 1038.87 1140.52C1037.78 1137.64 1036.15 1135.45 1033.99 1133.98C1031.85 1132.48 1029.22 1131.73 1026.08 1131.73C1022.95 1131.73 1020.3 1132.48 1018.14 1133.98C1016 1135.45 1014.38 1137.64 1013.26 1140.52C1012.17 1143.39 1011.63 1146.91 1011.63 1151.09C1011.63 1155.27 1012.17 1158.81 1013.26 1161.69C1014.38 1164.56 1016 1166.74 1018.14 1168.24C1020.3 1169.72 1022.95 1170.45 1026.08 1170.45C1029.22 1170.45 1031.85 1169.72 1033.99 1168.24C1036.15 1166.74 1037.78 1164.56 1038.87 1161.69C1039.98 1158.81 1040.54 1155.27 1040.54 1151.09ZM1074.57 1186V1116.18H1093.52V1144.41H1094.48L1115.48 1116.18H1137.57L1113.98 1147.27L1138.11 1186H1115.48L1099.79 1159.82L1093.52 1168V1186H1074.57ZM1148.95 1186V1116.18H1199.27V1131.45H1167.91V1143.45H1196.68V1158.73H1167.91V1170.73H1199.13V1186H1148.95ZM1214.43 1186V1116.18H1244.57C1249.75 1116.18 1254.28 1117.12 1258.17 1119.01C1262.06 1120.9 1265.08 1123.61 1267.24 1127.16C1269.4 1130.7 1270.48 1134.95 1270.48 1139.91C1270.48 1144.91 1269.36 1149.12 1267.13 1152.56C1264.93 1155.99 1261.83 1158.58 1257.83 1160.33C1253.85 1162.08 1249.2 1162.95 1243.88 1162.95H1225.88V1148.23H1240.07C1242.29 1148.23 1244.19 1147.95 1245.76 1147.41C1247.35 1146.84 1248.57 1145.94 1249.41 1144.72C1250.27 1143.49 1250.7 1141.89 1250.7 1139.91C1250.7 1137.91 1250.27 1136.28 1249.41 1135.03C1248.57 1133.76 1247.35 1132.83 1245.76 1132.24C1244.19 1131.62 1242.29 1131.32 1240.07 1131.32H1233.38V1186H1214.43ZM1255.34 1153.95L1272.79 1186H1252.2L1235.16 1153.95H1255.34Z" fill="#F9F9F9"/>
</svg>
