<svg width="2428" height="968" viewBox="0 0 2428 968" fill="none" xmlns="http://www.w3.org/2000/svg">
<mask id="mask0_41_60" style="mask-type:luminance" maskUnits="userSpaceOnUse" x="0" y="15" width="1293" height="938">
<path d="M0 15H1292.61V953H0V15Z" fill="white"/>
</mask>
<g mask="url(#mask0_41_60)">
<path d="M497.064 538.752C539.245 583.436 560.366 639.321 560.366 706.316C560.366 783.262 533.049 846.563 478.446 896.192C470.134 904.503 461.883 911.534 453.601 917.313C470.998 886.689 479.667 852.343 479.667 814.302C479.667 761.367 463.968 717.904 432.511 683.974C428.37 680.668 422.978 676.14 416.365 670.331C409.722 664.552 399.623 657.283 385.95 648.585C372.307 639.916 354.493 629.371 332.598 616.949C310.643 604.527 283.148 589.245 250.052 571.014C148.263 518.079 80.433 465.501 46.4734 413.37C15.88 369.58 0.568359 315.811 0.568359 252.062C0.568359 189.981 18.7695 137.85 55.2016 95.6392C53.5334 102.282 52.2823 109.283 51.478 116.76C50.6439 124.207 50.2268 131.624 50.2268 139.072C50.2268 192.037 70.0962 238.359 109.805 278.098C126.338 294.66 149.961 313.487 180.584 334.578C211.177 355.698 249.665 379.083 296.017 404.731C359.706 440.299 406.475 468.629 436.264 489.72C466.023 510.84 486.28 527.194 497.064 538.752ZM0.568359 835.422C12.9904 857.764 27.2594 879.063 43.4051 899.32C59.5508 919.606 78.3776 938.016 99.8853 954.549H0.568359V835.422ZM1280.88 849.066V87.0003C1280.88 80.3871 1281.26 70.229 1282.1 56.5558C1282.9 42.9124 1286.62 29.0605 1293.27 15H1136.87L892.425 736.91L866.3 671.582C837.345 598.778 806.096 516.023 772.613 423.349C739.1 330.675 703.294 227.665 665.223 114.317C657.776 93.6135 652.205 77.7061 648.482 66.5054C644.758 55.3345 642.047 47.0531 640.439 41.6911C638.741 36.2992 637.728 32.5756 637.341 30.4903C636.894 28.4349 636.715 26.1411 636.715 23.6686C636.715 19.5577 637.102 16.6384 637.936 15H426.94C448.448 31.5628 467.275 49.9426 483.42 70.229C499.566 90.5154 513.835 111.398 526.257 132.905C532.87 152.745 539.9 171.989 547.378 190.607C554.825 209.225 561.825 227.635 568.468 245.836C591.614 302.912 611.484 353.196 628.046 396.629C644.579 440.061 658.64 476.285 670.258 505.24C695.072 572.265 717.593 632.261 737.879 685.226C758.136 738.191 775.741 784.93 790.636 825.473C793.138 832.116 796.623 841.41 801.181 853.385C805.739 865.39 810.505 878.021 815.48 891.247C820.425 904.503 824.982 916.896 829.123 928.484C833.234 940.101 836.57 948.77 839.043 954.549C850.601 920.649 861.772 887.941 872.556 856.483C881.284 830.924 1055.1 309.883 1124.99 100.286C1128.77 88.9366 1145.57 91.6176 1145.6 103.593C1145.6 103.831 1145.6 104.069 1145.6 104.338V860.207C1145.6 886.689 1145.16 907.184 1144.35 921.662C1143.52 936.139 1142.3 947.102 1140.63 954.549H1288.35C1285.85 943.795 1283.97 930.152 1282.75 913.589C1281.5 897.056 1280.88 875.548 1280.88 849.066Z" fill="#1E1E1E"/>
</g>
<path d="M1349.48 155V38.6364H1394.02C1402.43 38.6364 1409.42 39.9621 1414.99 42.6136C1420.59 45.2273 1424.78 48.8068 1427.55 53.3523C1430.35 57.8977 1431.75 63.0492 1431.75 68.8068C1431.75 73.5417 1430.84 77.5947 1429.02 80.9659C1427.2 84.2992 1424.76 87.0076 1421.69 89.0909C1418.62 91.1742 1415.2 92.6705 1411.41 93.5795V94.7159C1415.54 94.9432 1419.5 96.2121 1423.28 98.5227C1427.11 100.795 1430.23 104.015 1432.66 108.182C1435.08 112.348 1436.3 117.386 1436.3 123.295C1436.3 129.318 1434.84 134.735 1431.92 139.545C1429 144.318 1424.61 148.087 1418.74 150.852C1412.87 153.617 1405.48 155 1396.58 155H1349.48ZM1370.56 137.386H1393.23C1400.88 137.386 1406.39 135.928 1409.76 133.011C1413.17 130.057 1414.88 126.269 1414.88 121.648C1414.88 118.201 1414.02 115.095 1412.32 112.33C1410.61 109.527 1408.19 107.33 1405.05 105.739C1401.9 104.11 1398.15 103.295 1393.8 103.295H1370.56V137.386ZM1370.56 88.125H1391.41C1395.05 88.125 1398.32 87.4621 1401.24 86.1364C1404.16 84.7727 1406.45 82.8598 1408.11 80.3977C1409.82 77.8977 1410.67 74.9432 1410.67 71.5341C1410.67 67.0265 1409.08 63.3144 1405.9 60.3977C1402.75 57.4811 1398.08 56.0227 1391.86 56.0227H1370.56V88.125ZM1454.63 155V38.6364H1530.32V56.3068H1475.71V87.8977H1526.39V105.568H1475.71V137.33H1530.77V155H1454.63ZM1566.76 155H1544.26L1585.23 38.6364H1611.25L1652.28 155H1629.78L1598.7 62.5H1597.79L1566.76 155ZM1567.5 109.375H1628.87V126.307H1567.5V109.375ZM1740.95 38.6364H1762.03V114.659C1762.03 122.992 1760.06 130.322 1756.12 136.648C1752.22 142.973 1746.73 147.917 1739.65 151.477C1732.56 155 1724.29 156.761 1714.82 156.761C1705.31 156.761 1697.02 155 1689.93 151.477C1682.85 147.917 1677.36 142.973 1673.45 136.648C1669.55 130.322 1667.6 122.992 1667.6 114.659V38.6364H1688.68V112.898C1688.68 117.746 1689.74 122.064 1691.86 125.852C1694.02 129.64 1697.05 132.614 1700.95 134.773C1704.86 136.894 1709.48 137.955 1714.82 137.955C1720.16 137.955 1724.78 136.894 1728.68 134.773C1732.62 132.614 1735.65 129.64 1737.77 125.852C1739.89 122.064 1740.95 117.746 1740.95 112.898V38.6364ZM1779.83 56.3068V38.6364H1872.67V56.3068H1836.71V155H1815.8V56.3068H1779.83ZM1882.62 38.6364H1906.42L1934.89 90.1136H1936.03L1964.49 38.6364H1988.3L1945.97 111.591V155H1924.95V111.591L1882.62 38.6364Z" fill="#1E1E1E"/>
<path d="M1364.42 671H1341.92L1382.89 554.636H1408.91L1449.93 671H1427.43L1396.35 578.5H1395.44L1364.42 671ZM1365.16 625.375H1426.52V642.307H1365.16V625.375ZM1560.88 554.636V671H1542.13L1487.3 591.739H1486.34V671H1465.26V554.636H1484.12L1538.89 633.955H1539.92V554.636H1560.88ZM1623.28 671H1583.85V554.636H1624.08C1635.63 554.636 1645.56 556.966 1653.85 561.625C1662.19 566.246 1668.59 572.894 1673.06 581.568C1677.53 590.242 1679.76 600.621 1679.76 612.705C1679.76 624.826 1677.51 635.242 1673 643.955C1668.53 652.667 1662.07 659.352 1653.62 664.011C1645.22 668.67 1635.1 671 1623.28 671ZM1604.93 652.761H1622.26C1630.37 652.761 1637.13 651.284 1642.55 648.33C1647.96 645.337 1652.03 640.886 1654.76 634.977C1657.49 629.03 1658.85 621.606 1658.85 612.705C1658.85 603.803 1657.49 596.417 1654.76 590.545C1652.03 584.636 1648 580.223 1642.66 577.307C1637.36 574.352 1630.77 572.875 1622.89 572.875H1604.93V652.761Z" fill="#1E1E1E"/>
<path d="M1449.08 335.898H1427.83C1427.22 332.413 1426.11 329.326 1424.48 326.636C1422.85 323.909 1420.82 321.598 1418.4 319.705C1415.97 317.811 1413.21 316.39 1410.1 315.443C1407.03 314.458 1403.72 313.966 1400.16 313.966C1393.83 313.966 1388.23 315.557 1383.34 318.739C1378.45 321.883 1374.63 326.504 1371.86 332.602C1369.1 338.663 1367.72 346.068 1367.72 354.818C1367.72 363.72 1369.1 371.22 1371.86 377.318C1374.67 383.379 1378.49 387.962 1383.34 391.068C1388.23 394.136 1393.81 395.67 1400.1 395.67C1403.59 395.67 1406.84 395.216 1409.88 394.307C1412.94 393.36 1415.69 391.977 1418.11 390.159C1420.58 388.341 1422.64 386.106 1424.31 383.455C1426.01 380.803 1427.19 377.773 1427.83 374.364L1449.08 374.477C1448.28 380.008 1446.56 385.197 1443.91 390.045C1441.3 394.894 1437.87 399.174 1433.62 402.886C1429.38 406.561 1424.42 409.439 1418.74 411.523C1413.06 413.568 1406.75 414.591 1399.82 414.591C1389.59 414.591 1380.46 412.223 1372.43 407.489C1364.4 402.754 1358.08 395.917 1353.45 386.977C1348.83 378.038 1346.52 367.318 1346.52 354.818C1346.52 342.28 1348.85 331.561 1353.51 322.659C1358.17 313.72 1364.52 306.883 1372.55 302.148C1380.58 297.413 1389.67 295.045 1399.82 295.045C1406.3 295.045 1412.32 295.955 1417.89 297.773C1423.45 299.591 1428.42 302.261 1432.77 305.784C1437.13 309.269 1440.71 313.549 1443.51 318.625C1446.35 323.663 1448.21 329.42 1449.08 335.898ZM1572.36 354.818C1572.36 367.356 1570.01 378.095 1565.32 387.034C1560.66 395.936 1554.29 402.754 1546.22 407.489C1538.19 412.223 1529.08 414.591 1518.89 414.591C1508.71 414.591 1499.58 412.223 1491.51 407.489C1483.48 402.716 1477.11 395.879 1472.42 386.977C1467.76 378.038 1465.43 367.318 1465.43 354.818C1465.43 342.28 1467.76 331.561 1472.42 322.659C1477.11 313.72 1483.48 306.883 1491.51 302.148C1499.58 297.413 1508.71 295.045 1518.89 295.045C1529.08 295.045 1538.19 297.413 1546.22 302.148C1554.29 306.883 1560.66 313.72 1565.32 322.659C1570.01 331.561 1572.36 342.28 1572.36 354.818ZM1551.17 354.818C1551.17 345.992 1549.79 338.549 1547.02 332.489C1544.29 326.39 1540.5 321.788 1535.66 318.682C1530.81 315.538 1525.22 313.966 1518.89 313.966C1512.57 313.966 1506.98 315.538 1502.13 318.682C1497.29 321.788 1493.48 326.39 1490.71 332.489C1487.99 338.549 1486.62 345.992 1486.62 354.818C1486.62 363.644 1487.99 371.106 1490.71 377.205C1493.48 383.265 1497.29 387.867 1502.13 391.011C1506.98 394.117 1512.57 395.67 1518.89 395.67C1525.22 395.67 1530.81 394.117 1535.66 391.011C1540.5 387.867 1544.29 383.265 1547.02 377.205C1549.79 371.106 1551.17 363.644 1551.17 354.818ZM1687.91 296.636V413H1669.16L1614.34 333.739H1613.37V413H1592.29V296.636H1611.15L1665.93 375.955H1666.95V296.636H1687.91ZM1774.12 328.625C1773.59 323.663 1771.36 319.799 1767.42 317.034C1763.52 314.269 1758.44 312.886 1752.19 312.886C1747.8 312.886 1744.03 313.549 1740.88 314.875C1737.74 316.201 1735.33 318 1733.67 320.273C1732 322.545 1731.15 325.14 1731.11 328.057C1731.11 330.481 1731.66 332.583 1732.76 334.364C1733.89 336.144 1735.43 337.659 1737.36 338.909C1739.29 340.121 1741.43 341.144 1743.78 341.977C1746.13 342.811 1748.5 343.511 1750.88 344.08L1761.79 346.807C1766.19 347.83 1770.41 349.212 1774.46 350.955C1778.55 352.697 1782.21 354.894 1785.43 357.545C1788.69 360.197 1791.26 363.398 1793.16 367.148C1795.05 370.898 1796 375.292 1796 380.33C1796 387.148 1794.25 393.152 1790.77 398.341C1787.29 403.492 1782.25 407.527 1775.66 410.443C1769.1 413.322 1761.17 414.761 1751.85 414.761C1742.8 414.761 1734.94 413.36 1728.27 410.557C1721.64 407.754 1716.45 403.663 1712.7 398.284C1708.99 392.905 1706.98 386.352 1706.68 378.625H1727.42C1727.72 382.678 1728.97 386.049 1731.17 388.739C1733.36 391.428 1736.22 393.436 1739.75 394.761C1743.31 396.087 1747.29 396.75 1751.68 396.75C1756.26 396.75 1760.28 396.068 1763.72 394.705C1767.21 393.303 1769.94 391.371 1771.91 388.909C1773.88 386.409 1774.88 383.492 1774.92 380.159C1774.88 377.129 1773.99 374.629 1772.25 372.659C1770.5 370.652 1768.06 368.985 1764.92 367.659C1761.81 366.295 1758.18 365.083 1754.01 364.023L1740.77 360.614C1731.19 358.152 1723.61 354.42 1718.04 349.42C1712.51 344.383 1709.75 337.697 1709.75 329.364C1709.75 322.508 1711.6 316.504 1715.32 311.352C1719.07 306.201 1724.16 302.205 1730.6 299.364C1737.04 296.485 1744.33 295.045 1752.47 295.045C1760.73 295.045 1767.97 296.485 1774.18 299.364C1780.43 302.205 1785.33 306.163 1788.89 311.239C1792.46 316.277 1794.29 322.072 1794.41 328.625H1774.12ZM1888.14 296.636H1909.22V372.659C1909.22 380.992 1907.25 388.322 1903.31 394.648C1899.41 400.973 1893.92 405.917 1886.84 409.477C1879.75 413 1871.48 414.761 1862.01 414.761C1852.5 414.761 1844.2 413 1837.12 409.477C1830.04 405.917 1824.54 400.973 1820.64 394.648C1816.74 388.322 1814.79 380.992 1814.79 372.659V296.636H1835.87V370.898C1835.87 375.746 1836.93 380.064 1839.05 383.852C1841.21 387.64 1844.24 390.614 1848.14 392.773C1852.04 394.894 1856.66 395.955 1862.01 395.955C1867.35 395.955 1871.97 394.894 1875.87 392.773C1879.81 390.614 1882.84 387.64 1884.96 383.852C1887.08 380.064 1888.14 375.746 1888.14 370.898V296.636ZM1932.13 413V296.636H1953.21V395.33H2004.46V413H1932.13ZM2002.8 314.307V296.636H2095.64V314.307H2059.68V413H2038.77V314.307H2002.8ZM2114.42 413H2091.92L2132.89 296.636H2158.91L2199.93 413H2177.43L2146.35 320.5H2145.44L2114.42 413ZM2115.16 367.375H2176.52V384.307H2115.16V367.375ZM2310.88 296.636V413H2292.13L2237.3 333.739H2236.34V413H2215.26V296.636H2234.12L2288.89 375.955H2289.92V296.636H2310.88ZM2328.74 314.307V296.636H2421.58V314.307H2385.61V413H2364.7V314.307H2328.74Z" fill="#1E1E1E"/>
<path d="M1349.48 929V812.636H1394.02C1402.43 812.636 1409.42 813.962 1414.99 816.614C1420.59 819.227 1424.78 822.807 1427.55 827.352C1430.35 831.898 1431.75 837.049 1431.75 842.807C1431.75 847.542 1430.84 851.595 1429.02 854.966C1427.2 858.299 1424.76 861.008 1421.69 863.091C1418.62 865.174 1415.2 866.67 1411.41 867.58V868.716C1415.54 868.943 1419.5 870.212 1423.28 872.523C1427.11 874.795 1430.23 878.015 1432.66 882.182C1435.08 886.348 1436.3 891.386 1436.3 897.295C1436.3 903.318 1434.84 908.735 1431.92 913.545C1429 918.318 1424.61 922.087 1418.74 924.852C1412.87 927.617 1405.48 929 1396.58 929H1349.48ZM1370.56 911.386H1393.23C1400.88 911.386 1406.39 909.928 1409.76 907.011C1413.17 904.057 1414.88 900.269 1414.88 895.648C1414.88 892.201 1414.02 889.095 1412.32 886.33C1410.61 883.527 1408.19 881.33 1405.05 879.739C1401.9 878.11 1398.15 877.295 1393.8 877.295H1370.56V911.386ZM1370.56 862.125H1391.41C1395.05 862.125 1398.32 861.462 1401.24 860.136C1404.16 858.773 1406.45 856.86 1408.11 854.398C1409.82 851.898 1410.67 848.943 1410.67 845.534C1410.67 841.027 1409.08 837.314 1405.9 834.398C1402.75 831.481 1398.08 830.023 1391.86 830.023H1370.56V862.125ZM1454.63 929V812.636H1498.27C1507.21 812.636 1514.71 814.189 1520.77 817.295C1526.87 820.402 1531.47 824.758 1534.58 830.364C1537.72 835.932 1539.29 842.428 1539.29 849.852C1539.29 857.314 1537.7 863.792 1534.52 869.284C1531.38 874.739 1526.74 878.962 1520.6 881.955C1514.46 884.909 1506.93 886.386 1497.99 886.386H1466.91V868.886H1495.14C1500.37 868.886 1504.65 868.167 1507.99 866.727C1511.32 865.25 1513.78 863.11 1515.37 860.307C1517 857.466 1517.82 853.981 1517.82 849.852C1517.82 845.723 1517 842.201 1515.37 839.284C1513.74 836.33 1511.26 834.095 1507.93 832.58C1504.6 831.027 1500.3 830.25 1495.03 830.25H1475.71V929H1454.63ZM1514.75 876.273L1543.55 929H1520.03L1491.74 876.273H1514.75ZM1662.67 870.818C1662.67 883.356 1660.32 894.095 1655.63 903.034C1650.97 911.936 1644.61 918.754 1636.54 923.489C1628.51 928.223 1619.4 930.591 1609.21 930.591C1599.02 930.591 1589.89 928.223 1581.82 923.489C1573.79 918.716 1567.43 911.879 1562.73 902.977C1558.07 894.038 1555.74 883.318 1555.74 870.818C1555.74 858.28 1558.07 847.561 1562.73 838.659C1567.43 829.72 1573.79 822.883 1581.82 818.148C1589.89 813.413 1599.02 811.045 1609.21 811.045C1619.4 811.045 1628.51 813.413 1636.54 818.148C1644.61 822.883 1650.97 829.72 1655.63 838.659C1660.32 847.561 1662.67 858.28 1662.67 870.818ZM1641.48 870.818C1641.48 861.992 1640.1 854.549 1637.33 848.489C1634.61 842.39 1630.82 837.788 1625.97 834.682C1621.12 831.538 1615.53 829.966 1609.21 829.966C1602.88 829.966 1597.29 831.538 1592.45 834.682C1587.6 837.788 1583.79 842.39 1581.03 848.489C1578.3 854.549 1576.93 861.992 1576.93 870.818C1576.93 879.644 1578.3 887.106 1581.03 893.205C1583.79 899.265 1587.6 903.867 1592.45 907.011C1597.29 910.117 1602.88 911.67 1609.21 911.67C1615.53 911.67 1621.12 910.117 1625.97 907.011C1630.82 903.867 1634.61 899.265 1637.33 893.205C1640.1 887.106 1641.48 879.644 1641.48 870.818ZM1682.6 929V812.636H1703.68V866.102H1705.1L1750.5 812.636H1776.24L1731.24 864.852L1776.64 929H1751.3L1716.58 879.114L1703.68 894.341V929H1682.6ZM1790.88 929V812.636H1866.57V830.307H1811.96V861.898H1862.64V879.568H1811.96V911.33H1867.02V929H1790.88ZM1888.07 929V812.636H1931.71C1940.65 812.636 1948.15 814.189 1954.21 817.295C1960.31 820.402 1964.91 824.758 1968.01 830.364C1971.16 835.932 1972.73 842.428 1972.73 849.852C1972.73 857.314 1971.14 863.792 1967.96 869.284C1964.81 874.739 1960.17 878.962 1954.04 881.955C1947.9 884.909 1940.36 886.386 1931.42 886.386H1900.34V868.886H1928.58C1933.81 868.886 1938.09 868.167 1941.42 866.727C1944.76 865.25 1947.22 863.11 1948.81 860.307C1950.44 857.466 1951.25 853.981 1951.25 849.852C1951.25 845.723 1950.44 842.201 1948.81 839.284C1947.18 836.33 1944.7 834.095 1941.37 832.58C1938.03 831.027 1933.73 830.25 1928.47 830.25H1909.15V929H1888.07ZM1948.18 876.273L1976.99 929H1953.47L1925.17 876.273H1948.18Z" fill="#1E1E1E"/>
</svg>
