<svg width="226" height="164" viewBox="0 0 226 164" fill="none" xmlns="http://www.w3.org/2000/svg">
<mask id="mask0_32_2" style="mask-type:luminance" maskUnits="userSpaceOnUse" x="0" y="0" width="226" height="164">
<path d="M0 0H226V164H0V0Z" fill="white"/>
</mask>
<g mask="url(#mask0_32_2)">
<path d="M86.9069 91.5729C94.2819 99.3854 97.9746 109.156 97.9746 120.87C97.9746 134.323 93.1986 145.391 83.6517 154.068C82.1986 155.521 80.7559 156.75 79.3079 157.76C82.3496 152.406 83.8652 146.401 83.8652 139.75C83.8652 130.495 81.1204 122.896 75.6204 116.964C74.8965 116.385 73.9538 115.594 72.7975 114.578C71.6361 113.568 69.8704 112.297 67.4798 110.776C65.0944 109.26 61.9798 107.417 58.1517 105.245C54.3132 103.073 49.5059 100.401 43.7194 97.2135C25.9225 87.9583 14.0632 78.7656 8.12565 69.651C2.77669 61.9948 0.0996094 52.5938 0.0996094 41.4479C0.0996094 30.5938 3.2819 21.4792 9.65169 14.099C9.36003 15.2604 9.14128 16.4844 9.00065 17.7917C8.85482 19.0938 8.7819 20.3906 8.7819 21.6927C8.7819 30.9531 12.2559 39.0521 19.1986 46C22.0892 48.8958 26.2194 52.1875 31.5736 55.875C36.9225 59.5677 43.6517 63.6563 51.7559 68.1406C62.8913 74.3594 71.0684 79.3125 76.2767 83C81.4798 86.6927 85.0215 89.5521 86.9069 91.5729ZM0.0996094 143.443C2.27148 147.349 4.76628 151.073 7.58919 154.615C10.4121 158.161 13.7038 161.38 17.4642 164.271H0.0996094V143.443ZM223.949 145.828V12.5885C223.949 11.4323 224.016 9.65625 224.162 7.26563C224.303 4.88021 224.954 2.45833 226.115 0H198.771L156.032 126.219L151.464 114.797C146.402 102.068 140.938 87.599 135.084 71.3958C129.225 55.1927 122.964 37.1823 116.308 17.3646C115.006 13.7448 114.032 10.9635 113.381 9.00521C112.73 7.05208 112.256 5.60417 111.975 4.66667C111.678 3.72396 111.501 3.07292 111.433 2.70833C111.355 2.34896 111.324 1.94792 111.324 1.51563C111.324 0.796876 111.391 0.286459 111.537 0H74.6465C78.4069 2.89583 81.6986 6.10937 84.5215 9.65625C87.3444 13.2031 89.8392 16.8542 92.0111 20.6146C93.1673 24.0833 94.3965 27.4479 95.7038 30.7031C97.0059 33.9583 98.2298 37.1771 99.3913 40.3594C103.438 50.3385 106.912 59.1302 109.808 66.724C112.699 74.3177 115.157 80.651 117.188 85.7135C121.527 97.4323 125.464 107.922 129.011 117.182C132.553 126.443 135.631 134.615 138.235 141.703C138.673 142.865 139.282 144.49 140.079 146.583C140.876 148.682 141.709 150.891 142.579 153.203C143.443 155.521 144.24 157.688 144.964 159.714C145.683 161.745 146.266 163.26 146.699 164.271C148.719 158.344 150.673 152.625 152.558 147.125C154.084 142.656 184.475 51.5573 196.693 14.9115C197.355 12.9271 200.292 13.3958 200.298 15.4896C200.298 15.5313 200.298 15.5729 200.298 15.6198V147.776C200.298 152.406 200.219 155.99 200.079 158.521C199.933 161.052 199.719 162.969 199.428 164.271H225.256C224.818 162.391 224.49 160.005 224.277 157.109C224.058 154.219 223.949 150.458 223.949 145.828Z" fill="#1E1E1E"/>
</g>
</svg>
