<svg width="682" height="702" viewBox="0 0 682 702" fill="none" xmlns="http://www.w3.org/2000/svg">
<mask id="mask0_50_2" style="mask-type:luminance" maskUnits="userSpaceOnUse" x="6" y="0" width="670" height="487">
<path d="M6 0H676V486.195H6V0Z" fill="white"/>
</mask>
<g mask="url(#mask0_50_2)">
<path d="M263.644 271.477C285.508 294.638 296.455 323.605 296.455 358.331C296.455 398.214 282.296 431.025 253.994 456.749C249.686 461.057 245.409 464.701 241.116 467.697C250.133 451.824 254.627 434.021 254.627 414.303C254.627 386.865 246.489 364.337 230.184 346.75C228.038 345.036 225.243 342.689 221.815 339.679C218.372 336.683 213.138 332.916 206.05 328.407C198.979 323.914 189.745 318.448 178.396 312.009C167.016 305.57 152.765 297.649 135.61 288.199C82.8496 260.761 47.6913 233.509 30.0889 206.488C14.2314 183.79 6.29492 155.92 6.29492 122.877C6.29492 90.6983 15.7291 63.6772 34.613 41.7978C33.7484 45.2411 33.0999 48.8696 32.683 52.7452C32.2506 56.6054 32.0345 60.4501 32.0345 64.3102C32.0345 91.7637 42.3334 115.774 62.9157 136.372C71.4853 144.957 83.7297 154.715 99.6027 165.647C115.46 176.595 135.41 188.715 159.435 202.01C192.447 220.446 216.689 235.13 232.13 246.062C247.555 257.009 258.054 265.486 263.644 271.477ZM6.29492 425.251C12.7337 436.831 20.1297 447.871 28.4986 458.371C36.8674 468.886 46.6259 478.428 57.774 486.998H6.29492V425.251ZM669.918 432.322V37.32C669.918 33.8922 670.119 28.6269 670.551 21.5397C670.968 14.4679 672.898 7.28798 676.341 0H595.278L468.572 374.188L455.031 340.327C440.022 302.59 423.825 259.696 406.47 211.66C389.099 163.624 370.539 110.231 350.806 51.4791C346.946 40.7478 344.059 32.5025 342.129 26.6969C340.199 20.9066 338.794 16.6141 337.96 13.8348C337.08 11.0401 336.555 9.10998 336.354 8.02913C336.122 6.96373 336.03 5.7748 336.03 4.49322C336.03 2.36242 336.23 0.849236 336.663 0H227.297C238.445 8.58499 248.203 18.1119 256.572 28.6269C264.941 39.142 272.337 49.9659 278.776 61.114C282.204 71.3975 285.848 81.3721 289.723 91.0225C293.583 100.673 297.212 110.215 300.655 119.649C312.653 149.234 322.951 175.298 331.536 197.81C340.106 220.322 347.394 239.098 353.416 254.107C366.278 288.848 377.951 319.945 388.466 347.399C398.966 374.852 408.091 399.079 415.811 420.093C417.108 423.537 418.915 428.354 421.277 434.561C423.64 440.784 426.11 447.331 428.689 454.186C431.252 461.057 433.614 467.481 435.761 473.487C437.892 479.509 439.621 484.002 440.902 486.998C446.893 469.426 452.684 452.472 458.273 436.167C462.797 422.919 552.893 152.847 589.117 44.2065C591.078 38.3237 599.787 39.7133 599.802 45.9204C599.802 46.044 599.802 46.1675 599.802 46.3065V438.097C599.802 451.824 599.57 462.447 599.154 469.951C598.721 477.455 598.088 483.137 597.223 486.998H673.794C672.497 481.424 671.524 474.352 670.891 465.767C670.242 457.197 669.918 446.049 669.918 432.322Z" fill="#151515"/>
</g>
<path d="M7.5 641V524.636H57.9545C66.8182 524.636 74.2614 525.83 80.2841 528.216C86.3447 530.602 90.9091 533.973 93.9773 538.33C97.0833 542.686 98.6364 547.818 98.6364 553.727C98.6364 558.008 97.6894 561.909 95.7955 565.432C93.9394 568.955 91.3258 571.909 87.9545 574.295C84.5833 576.644 80.6439 578.273 76.1364 579.182V580.318C81.1364 580.508 85.6818 581.777 89.7727 584.125C93.8636 586.436 97.1212 589.636 99.5455 593.727C101.97 597.78 103.182 602.553 103.182 608.045C103.182 614.409 101.515 620.072 98.1818 625.034C94.8864 629.996 90.1894 633.898 84.0909 636.739C77.9924 639.58 70.7197 641 62.2727 641H7.5ZM39.0909 615.773H53.8636C59.1667 615.773 63.1439 614.788 65.7955 612.818C68.447 610.811 69.7727 607.856 69.7727 603.955C69.7727 601.227 69.1477 598.917 67.8977 597.023C66.6477 595.129 64.8674 593.689 62.5568 592.705C60.2841 591.72 57.5379 591.227 54.3182 591.227H39.0909V615.773ZM39.0909 571.682H52.0455C54.8106 571.682 57.2538 571.246 59.375 570.375C61.4962 569.504 63.1439 568.254 64.3182 566.625C65.5303 564.958 66.1364 562.932 66.1364 560.545C66.1364 556.947 64.8485 554.201 62.2727 552.307C59.697 550.375 56.4394 549.409 52.5 549.409H39.0909V571.682ZM114.375 641V524.636H198.239V550.091H145.966V570.091H193.92V595.545H145.966V615.545H198.011V641H114.375ZM244.134 641H210.043L248.452 524.636H291.634L330.043 641H295.952L270.497 556.682H269.588L244.134 641ZM237.77 595.091H301.861V618.727H237.77V595.091ZM410.114 524.636H441.705V599.182C441.705 608.045 439.583 615.716 435.341 622.193C431.136 628.633 425.265 633.614 417.727 637.136C410.189 640.621 401.439 642.364 391.477 642.364C381.439 642.364 372.652 640.621 365.114 637.136C357.576 633.614 351.705 628.633 347.5 622.193C343.333 615.716 341.25 608.045 341.25 599.182V524.636H372.841V596.455C372.841 600.053 373.636 603.273 375.227 606.114C376.818 608.917 379.015 611.114 381.818 612.705C384.659 614.295 387.879 615.091 391.477 615.091C395.114 615.091 398.333 614.295 401.136 612.705C403.939 611.114 406.136 608.917 407.727 606.114C409.318 603.273 410.114 600.053 410.114 596.455V524.636ZM453.537 550.091V524.636H554.673V550.091H519.673V641H488.537V550.091H453.537ZM561.79 524.636H597.017L619.744 571.909H620.653L643.381 524.636H678.608L635.881 604.409V641H604.517V604.409L561.79 524.636Z" fill="#151515"/>
<path d="M39.293 667.273H29.2788C29.2078 666.444 29.0184 665.692 28.7106 665.018C28.4147 664.343 28.0004 663.763 27.4677 663.278C26.9469 662.781 26.3136 662.402 25.5679 662.141C24.8221 661.869 23.9758 661.733 23.0288 661.733C21.3716 661.733 19.9689 662.135 18.8207 662.94C17.6843 663.745 16.8202 664.899 16.2284 666.403C15.6484 667.906 15.3584 669.711 15.3584 671.818C15.3584 674.044 15.6543 675.908 16.2461 677.411C16.8498 678.903 17.7199 680.027 18.8562 680.785C19.9926 681.531 21.3598 681.903 22.9578 681.903C23.8692 681.903 24.686 681.791 25.4081 681.566C26.1301 681.329 26.7575 680.992 27.2902 680.554C27.8228 680.116 28.2549 679.589 28.5863 678.974C28.9296 678.346 29.1604 677.642 29.2788 676.861L39.293 676.932C39.1746 678.471 38.7426 680.039 37.9968 681.637C37.2511 683.223 36.1917 684.691 34.8186 686.04C33.4573 687.378 31.7705 688.455 29.7582 689.272C27.7459 690.089 25.4081 690.497 22.7447 690.497C19.4066 690.497 16.4119 689.781 13.7603 688.349C11.1207 686.916 9.03146 684.809 7.49264 682.028C5.96565 679.246 5.20215 675.843 5.20215 671.818C5.20215 667.77 5.9834 664.361 7.5459 661.591C9.1084 658.809 11.2154 656.708 13.8669 655.288C16.5184 653.855 19.4777 653.139 22.7447 653.139C25.0411 653.139 27.154 653.453 29.0835 654.08C31.0129 654.708 32.7057 655.625 34.1616 656.832C35.6176 658.028 36.7895 659.502 37.6772 661.254C38.565 663.005 39.1036 665.012 39.293 667.273ZM81.9993 671.818C81.9993 675.866 81.212 679.281 79.6377 682.063C78.0633 684.833 75.9387 686.934 73.2635 688.366C70.5883 689.787 67.6053 690.497 64.3146 690.497C61.0002 690.497 58.0053 689.781 55.3301 688.349C52.6668 686.905 50.5479 684.798 48.9736 682.028C47.4111 679.246 46.6298 675.843 46.6298 671.818C46.6298 667.77 47.4111 664.361 48.9736 661.591C50.5479 658.809 52.6668 656.708 55.3301 655.288C58.0053 653.855 61.0002 653.139 64.3146 653.139C67.6053 653.139 70.5883 653.855 73.2635 655.288C75.9387 656.708 78.0633 658.809 79.6377 661.591C81.212 664.361 81.9993 667.77 81.9993 671.818ZM71.8429 671.818C71.8429 669.64 71.553 667.805 70.973 666.314C70.4048 664.811 69.5584 663.674 68.4339 662.905C67.3212 662.124 65.9481 661.733 64.3146 661.733C62.6811 661.733 61.302 662.124 60.1774 662.905C59.0647 663.674 58.2185 664.811 57.6385 666.314C57.0703 667.805 56.7861 669.64 56.7861 671.818C56.7861 673.996 57.0703 675.837 57.6385 677.34C58.2185 678.832 59.0647 679.968 60.1774 680.749C61.302 681.519 62.6811 681.903 64.3146 681.903C65.9481 681.903 67.3212 681.519 68.4339 680.749C69.5584 679.968 70.4048 678.832 70.973 677.34C71.553 675.837 71.8429 673.996 71.8429 671.818ZM121.029 653.636V690H112.791L99.6521 670.895H99.439V690H89.5668V653.636H97.9475L110.873 672.67H111.157V653.636H121.029ZM148.301 665C148.207 663.816 147.763 662.893 146.97 662.23C146.189 661.567 144.999 661.236 143.401 661.236C142.383 661.236 141.548 661.36 140.897 661.609C140.258 661.845 139.785 662.171 139.477 662.585C139.169 663 139.009 663.473 138.998 664.006C138.974 664.444 139.051 664.84 139.228 665.195C139.418 665.539 139.714 665.852 140.116 666.136C140.519 666.409 141.033 666.657 141.661 666.882C142.288 667.107 143.034 667.308 143.898 667.486L146.881 668.125C148.893 668.551 150.616 669.113 152.048 669.812C153.48 670.51 154.652 671.333 155.564 672.28C156.475 673.215 157.144 674.268 157.57 675.44C158.008 676.612 158.233 677.891 158.245 679.276C158.233 681.667 157.635 683.691 156.451 685.348C155.268 687.005 153.575 688.266 151.373 689.13C149.183 689.994 146.55 690.426 143.472 690.426C140.311 690.426 137.553 689.959 135.198 689.023C132.854 688.088 131.031 686.65 129.729 684.709C128.439 682.756 127.788 680.258 127.776 677.216H137.151C137.21 678.329 137.488 679.264 137.985 680.021C138.483 680.779 139.181 681.353 140.081 681.744C140.992 682.134 142.075 682.33 143.33 682.33C144.383 682.33 145.265 682.199 145.975 681.939C146.686 681.679 147.224 681.317 147.591 680.856C147.958 680.394 148.148 679.867 148.159 679.276C148.148 678.719 147.964 678.234 147.609 677.82C147.266 677.393 146.698 677.015 145.904 676.683C145.111 676.34 144.04 676.02 142.691 675.724L139.069 674.943C135.849 674.245 133.31 673.079 131.451 671.445C129.605 669.8 128.687 667.557 128.699 664.716C128.687 662.408 129.303 660.389 130.546 658.661C131.801 656.921 133.535 655.566 135.748 654.595C137.974 653.625 140.525 653.139 143.401 653.139C146.337 653.139 148.876 653.63 151.018 654.613C153.161 655.595 154.812 656.98 155.972 658.768C157.144 660.543 157.736 662.621 157.748 665H148.301ZM186.52 653.636H196.392V676.932C196.392 679.702 195.729 682.099 194.403 684.123C193.089 686.135 191.255 687.692 188.899 688.793C186.544 689.882 183.809 690.426 180.696 690.426C177.559 690.426 174.813 689.882 172.457 688.793C170.102 687.692 168.267 686.135 166.953 684.123C165.651 682.099 165 679.702 165 676.932V653.636H174.872V676.08C174.872 677.204 175.121 678.21 175.618 679.098C176.115 679.974 176.802 680.661 177.678 681.158C178.565 681.655 179.571 681.903 180.696 681.903C181.832 681.903 182.839 681.655 183.714 681.158C184.59 680.661 185.277 679.974 185.774 679.098C186.271 678.21 186.52 677.204 186.52 676.08V653.636ZM204.084 690V653.636H213.956V682.045H228.658V690H204.084ZM230.308 661.591V653.636H261.914V661.591H250.976V690H241.246V661.591H230.308ZM273.485 690H262.832L274.835 653.636H288.329L300.332 690H289.678L281.724 663.651H281.44L273.485 690ZM271.496 675.653H291.525V683.04H271.496V675.653ZM338.297 653.636V690H330.058L316.919 670.895H316.706V690H306.834V653.636H315.215L328.141 672.67H328.425V653.636H338.297ZM344.972 661.591V653.636H376.578V661.591H365.64V690H355.91V661.591H344.972ZM408.115 690.568C405.511 690.568 403.267 690.107 401.385 689.183C399.503 688.26 398.059 687.023 397.053 685.472C396.047 683.922 395.544 682.211 395.544 680.341C395.544 678.98 395.804 677.778 396.325 676.737C396.846 675.683 397.574 674.718 398.509 673.842C399.444 672.966 400.539 672.102 401.794 671.25L410.032 666.136C410.861 665.616 411.423 665.077 411.719 664.521C412.015 663.952 412.163 663.449 412.163 663.011C412.163 662.431 411.95 661.916 411.524 661.467C411.098 661.017 410.435 660.798 409.535 660.81C408.979 660.81 408.499 660.916 408.097 661.129C407.694 661.33 407.381 661.615 407.156 661.982C406.943 662.348 406.836 662.786 406.836 663.295C406.836 663.994 407.038 664.71 407.44 665.444C407.842 666.166 408.393 666.947 409.091 667.788C409.79 668.628 410.577 669.569 411.453 670.611L429.066 690H419.265L404.493 674.375C403.77 673.606 402.971 672.665 402.096 671.552C401.22 670.427 400.462 669.161 399.823 667.752C399.195 666.344 398.882 664.811 398.882 663.153C398.882 661.307 399.326 659.62 400.213 658.093C401.101 656.566 402.344 655.347 403.942 654.435C405.54 653.524 407.404 653.068 409.535 653.068C411.571 653.068 413.323 653.488 414.791 654.329C416.27 655.169 417.407 656.288 418.2 657.685C419.005 659.081 419.407 660.62 419.407 662.301C419.407 663.994 418.987 665.574 418.147 667.042C417.318 668.51 416.128 669.794 414.578 670.895L407.049 676.222C406.469 676.624 405.966 677.086 405.54 677.607C405.126 678.127 404.919 678.802 404.919 679.631C404.919 680.317 405.078 680.903 405.398 681.388C405.718 681.874 406.167 682.247 406.748 682.507C407.339 682.768 408.032 682.898 408.825 682.898C410.032 682.898 411.24 682.608 412.447 682.028C413.666 681.436 414.779 680.613 415.785 679.56C416.791 678.494 417.596 677.24 418.2 675.795C418.815 674.339 419.123 672.753 419.123 671.037H426.865C426.865 673.144 426.646 675.174 426.208 677.127C425.77 679.08 425.065 680.868 424.095 682.489C423.124 684.111 421.846 685.478 420.26 686.591C419.762 686.839 419.277 687.076 418.804 687.301C418.33 687.526 417.845 687.763 417.348 688.011C415.892 688.946 414.371 689.609 412.784 690C411.198 690.379 409.642 690.568 408.115 690.568ZM447.078 690V653.636H462.845C465.615 653.636 467.941 654.009 469.823 654.755C471.717 655.501 473.143 656.554 474.102 657.915C475.073 659.277 475.558 660.881 475.558 662.727C475.558 664.065 475.262 665.284 474.67 666.385C474.09 667.486 473.274 668.409 472.22 669.155C471.167 669.889 469.936 670.398 468.527 670.682V671.037C470.089 671.096 471.51 671.493 472.788 672.227C474.067 672.949 475.085 673.949 475.842 675.227C476.6 676.494 476.979 677.985 476.979 679.702C476.979 681.69 476.458 683.46 475.416 685.011C474.386 686.561 472.919 687.781 471.013 688.668C469.107 689.556 466.834 690 464.195 690H447.078ZM456.95 682.116H461.567C463.224 682.116 464.467 681.809 465.295 681.193C466.124 680.566 466.538 679.643 466.538 678.423C466.538 677.571 466.343 676.849 465.952 676.257C465.562 675.665 465.005 675.215 464.283 674.908C463.573 674.6 462.715 674.446 461.709 674.446H456.95V682.116ZM456.95 668.338H460.999C461.863 668.338 462.626 668.202 463.289 667.93C463.952 667.657 464.467 667.267 464.834 666.758C465.213 666.237 465.402 665.604 465.402 664.858C465.402 663.733 465 662.875 464.195 662.283C463.39 661.68 462.372 661.378 461.141 661.378H456.95V668.338ZM483.477 690V653.636H499.173C501.871 653.636 504.233 654.128 506.257 655.11C508.281 656.093 509.856 657.507 510.98 659.354C512.105 661.2 512.667 663.414 512.667 665.994C512.667 668.598 512.087 670.794 510.927 672.582C509.779 674.369 508.163 675.719 506.08 676.63C504.008 677.541 501.587 677.997 498.817 677.997H489.442V670.327H496.829C497.989 670.327 498.977 670.185 499.794 669.901C500.623 669.605 501.256 669.137 501.694 668.498C502.144 667.859 502.369 667.024 502.369 665.994C502.369 664.953 502.144 664.106 501.694 663.455C501.256 662.792 500.623 662.307 499.794 661.999C498.977 661.68 497.989 661.52 496.829 661.52H493.349V690H483.477ZM504.783 673.31L513.874 690H503.15L494.272 673.31H504.783ZM555.102 671.818C555.102 675.866 554.315 679.281 552.741 682.063C551.166 684.833 549.042 686.934 546.366 688.366C543.691 689.787 540.708 690.497 537.418 690.497C534.103 690.497 531.108 689.781 528.433 688.349C525.77 686.905 523.651 684.798 522.077 682.028C520.514 679.246 519.733 675.843 519.733 671.818C519.733 667.77 520.514 664.361 522.077 661.591C523.651 658.809 525.77 656.708 528.433 655.288C531.108 653.855 534.103 653.139 537.418 653.139C540.708 653.139 543.691 653.855 546.366 655.288C549.042 656.708 551.166 658.809 552.741 661.591C554.315 664.361 555.102 667.77 555.102 671.818ZM544.946 671.818C544.946 669.64 544.656 667.805 544.076 666.314C543.508 664.811 542.661 663.674 541.537 662.905C540.424 662.124 539.051 661.733 537.418 661.733C535.784 661.733 534.405 662.124 533.281 662.905C532.168 663.674 531.321 664.811 530.741 666.314C530.173 667.805 529.889 669.64 529.889 671.818C529.889 673.996 530.173 675.837 530.741 677.34C531.321 678.832 532.168 679.968 533.281 680.749C534.405 681.519 535.784 681.903 537.418 681.903C539.051 681.903 540.424 681.519 541.537 680.749C542.661 679.968 543.508 678.832 544.076 677.34C544.656 675.837 544.946 673.996 544.946 671.818ZM562.67 690V653.636H572.542V668.338H573.039L583.977 653.636H595.482L583.195 669.83L595.767 690H583.977L575.809 676.364L572.542 680.625V690H562.67ZM601.412 690V653.636H627.619V661.591H611.284V667.841H626.27V675.795H611.284V682.045H627.548V690H601.412ZM635.516 690V653.636H651.212C653.911 653.636 656.272 654.128 658.296 655.11C660.32 656.093 661.895 657.507 663.019 659.354C664.144 661.2 664.706 663.414 664.706 665.994C664.706 668.598 664.126 670.794 662.966 672.582C661.818 674.369 660.202 675.719 658.119 676.63C656.047 677.541 653.626 677.997 650.857 677.997H641.482V670.327H648.868C650.028 670.327 651.016 670.185 651.833 669.901C652.662 669.605 653.295 669.137 653.733 668.498C654.183 667.859 654.408 667.024 654.408 665.994C654.408 664.953 654.183 664.106 653.733 663.455C653.295 662.792 652.662 662.307 651.833 661.999C651.016 661.68 650.028 661.52 648.868 661.52H645.388V690H635.516ZM656.822 673.31L665.913 690H655.189L646.311 673.31H656.822Z" fill="#151515"/>
</svg>
